# xmcd CD database file
#
# Track frame offsets:
#	150
#	43315
#	82822
#	121192
#	161502
#	201000
#	232920
#
# Disc length: 3560 seconds
#
# Revision: 1
# Processed by: cddbd v1.5.1PL2 Copyright (c) Steve Scherf et al.
# Submitted via: CDex 1.51
#
DISCID=4c0de607
DTITLE=Triangle - Emotional Healing
DYEAR=1997
DGENRE=New Age
TTITLE0=Comfrey
TTITLE1=Lotus
TTITLE2=Willow
TTITLE3=Tansey
TTITLE4=Cenaury
TTITLE5=Sagebrush
TTITLE6=Eucalyptus
EXTD=YEAR: 1997
EXTT0=
EXTT1=
EXTT2=
EXTT3=
EXTT4=
EXTT5=
EXTT6=
PLAYORDER=
